<svg width="24" height="24" viewBox="0 0 24 24" fill="none" xmlns="http://www.w3.org/2000/svg">
<path fill-rule="evenodd" clip-rule="evenodd" d="M23.717 4.96888C23.1724 7.27021 21.7157 10.4087 18.2547 14.2972L17.8962 17.9097C17.8002 18.7754 17.4131 19.584 16.798 20.1991L13.2245 23.7786C13.1104 23.8912 12.964 23.9652 12.8057 23.9904C12.6474 24.0156 12.4852 23.9906 12.3418 23.919C12.1984 23.8474 12.081 23.7327 12.0061 23.5911C11.9311 23.4494 11.9024 23.2878 11.9238 23.129L12.3304 20.2786C12.3904 19.8585 12.3094 19.389 12.1324 18.8444C12.0183 18.4948 11.8923 18.1858 11.7588 17.8587L11.6358 17.5557C10.4131 17.2601 9.26844 16.5611 8.34881 15.6399C7.42617 14.7173 6.73007 13.5711 6.43603 12.3469L6.13149 12.2224C6.11118 12.2142 6.09094 12.2061 6.07077 12.1979C5.76609 12.0748 5.47528 11.9573 5.14885 11.8504C4.60427 11.6718 4.1362 11.5923 3.71614 11.6523L0.871732 12.0589C0.712596 12.0808 0.550609 12.0522 0.40856 11.9772C0.26651 11.9022 0.151547 11.7846 0.0798431 11.6408C0.00813909 11.4971 -0.0166974 11.3345 0.00882766 11.1759C0.0343527 11.0173 0.108955 10.8707 0.222139 10.7567L3.79565 7.1772C4.41042 6.5609 5.21685 6.1725 6.08198 6.07604H6.09098L9.6915 5.71899C13.5065 2.327 16.63 0.873292 18.9343 0.312211C20.2695 -0.014836 21.3197 -0.0358391 22.0548 0.0301705C22.3429 0.0549004 22.6288 0.101542 22.9099 0.169691C22.9907 0.189356 23.0707 0.211874 23.1499 0.2372C23.426 0.328713 23.5685 0.435229 23.678 0.681264C23.7233 0.794059 23.7623 0.909248 23.795 1.02631C23.8715 1.30307 23.9257 1.58551 23.9571 1.87094C24.0381 2.59854 24.0321 3.63819 23.717 4.96888ZM14.6272 9.291C15.5243 10.1896 17.2241 9.9481 18.4198 8.74792H18.4213C19.6169 7.54925 19.86 5.84951 18.9613 4.95088C18.0642 4.05225 16.366 4.29378 15.1688 5.49246C13.9731 6.69113 13.7301 8.39087 14.6272 9.291ZM10.512 18.2113C9.51439 17.6729 8.60231 16.9894 7.80556 16.183C6.94444 15.3204 6.20783 14.3303 5.68876 13.2951C4.03552 14.7818 2.74084 20.8757 2.92986 21.0662C3.11739 21.2537 8.83471 19.722 10.512 18.2113Z" fill="#AA8804"/>
</svg>
