<svg width="80" height="40" viewBox="0 0 80 40" fill="none" xmlns="http://www.w3.org/2000/svg">
<path d="M39.9993 0C17.9084 0 0 8.95506 0 20C0 31.0449 17.9084 40 39.9993 40C62.0902 40 80 31.0449 80 20C80 8.95506 62.0888 0 39.9993 0ZM39.9993 36.8433C19.6525 36.8433 3.15806 29.3022 3.15806 20C3.15806 10.6978 19.6525 3.15812 39.9993 3.15812C60.3461 3.15812 76.8419 10.6978 76.8419 20C76.8419 29.3022 60.3475 36.8433 39.9993 36.8433ZM34.956 16.4919V13.3338H46.2449V16.4919H42.1809V26.6704H39.0186V16.4919H34.956ZM59.8621 13.3338V26.6704H56.704L50.9763 18.7328V26.6704H47.8197V13.3338H50.9763L56.704 21.2714V13.3338H59.8621ZM20.0448 26.6704V13.3338H23.2029L26.7109 18.73L30.2189 13.3338H33.377V26.6704H30.2189V19.1251L27.82 22.8067H25.5975L23.1986 19.1251V26.6704H20.0448Z" fill="white"/>
</svg>
